<?xml version="1.0" encoding="UTF-8"?>
<svg version="1.1" xmlns="http://www.w3.org/2000/svg" width="1024" height="1024">
<path d="M0 0 C337.92 0 675.84 0 1024 0 C1024 337.92 1024 675.84 1024 1024 C686.08 1024 348.16 1024 0 1024 C0 686.08 0 348.16 0 0 Z " fill="#FBFAF9" transform="translate(0,0)"/>
<path d="M0 0 C0.94359375 0.33773437 1.8871875 0.67546875 2.859375 1.0234375 C4.15607444 1.47446339 5.45295984 1.92495488 6.75 2.375 C7.67232422 2.70757812 7.67232422 2.70757812 8.61328125 3.046875 C18.22926225 6.34933312 28.1281562 7.3882474 38.25 7.375 C39.3335376 7.37628906 40.4170752 7.37757813 41.53344727 7.37890625 C52.07455285 7.25126713 62.46673851 6.1376996 72.9375 5 C108.9416766 1.10975919 149.26337797 -0.33169911 179.5625 23 C186.17065467 28.67680401 192.02069006 35.1880828 196 43 C196 43.66 196 44.32 196 45 C196.85980469 45.13535156 197.71960938 45.27070313 198.60546875 45.41015625 C214.34716708 48.276965 227.90575946 55.95396007 237.234375 69.1640625 C242.15938752 77.36563294 244.32211571 83.86795757 244.125 93.375 C244.11597656 94.20644531 244.10695313 95.03789062 244.09765625 95.89453125 C244.0742622 97.92981337 244.03839725 99.96494564 244 102 C241 102 241 102 239.4140625 100.609375 C238.82367187 99.99578125 238.23328125 99.3821875 237.625 98.75 C227.1962581 89.51953365 213.05274474 89.96025828 199.87304688 90.73388672 C181.104306 92.4723238 163.2812404 100.95084927 149 113 C148.14019531 113.72058594 147.28039062 114.44117188 146.39453125 115.18359375 C121.38340714 136.93745518 106.71262037 164.88269329 100 197 C99.8242041 197.73549072 99.6484082 198.47098145 99.46728516 199.22875977 C98.86272512 202.81411035 98.79839943 206.35851354 98.76171875 209.984375 C98.74961113 211.14516571 98.74961113 211.14516571 98.73725891 212.32940674 C98.72345669 213.97007032 98.71271734 215.61076215 98.70483398 217.25146484 C98.69342643 218.89575889 98.67315762 220.54001932 98.64331055 222.18408203 C98.25321729 243.7285624 103.97154312 261.92110528 114 281 C106.19103127 278.93013978 99.00090147 275.9718373 91.6875 272.5625 C90.55393066 272.03462891 89.42036133 271.50675781 88.25244141 270.96289062 C53.43106949 254.50170093 21.39704133 232.33832083 7 195 C5.41693145 190.06418751 4.16141863 185.05068204 3 180 C2.80664062 179.18917969 2.61328125 178.37835938 2.4140625 177.54296875 C-1.08285027 156.06664601 5.89017018 134.10441978 18.09765625 116.578125 C20.29219237 113.60401034 22.5448106 110.76208807 25 108 C7.248758 116.92044737 -7.0182836 130.75213372 -18.01171875 147.13671875 C-19.5669815 149.37641933 -20.98600611 151.19060231 -23 153 C-24.36132963 132.02543985 -15.73098912 112.05856424 -6 94 C-5.44570313 92.95199219 -4.89140625 91.90398437 -4.3203125 90.82421875 C6.27479458 71.68712343 26.70714026 45.44668319 48 38 C48 37.34 48 36.68 48 36 C47.113125 35.938125 46.22625 35.87625 45.3125 35.8125 C30.29610398 33.62387548 15.49689236 24.3866049 6.109375 12.6328125 C3.26984169 8.53892224 1.47719355 4.78036247 0 0 Z " fill="#5CB7ED" transform="translate(419,241)"/>
<path d="M0 0 C6.42336232 5.17825404 10.81272434 12.10839518 15.421875 18.85546875 C18.69976002 23.65193331 22.13017653 28.32485776 25.59375 32.98828125 C31.81011263 41.38489521 37.94383823 49.83802376 44.04736328 58.31689453 C46.74637128 62.06437909 49.45163884 65.8073397 52.15625 69.55078125 C53.23961304 71.05075979 54.32294638 72.55075979 55.40625 74.05078125 C55.9425 74.79328125 56.47875 75.53578125 57.03125 76.30078125 C58.65625 78.55078125 60.28125 80.80078125 61.90625 83.05078125 C62.44330566 83.79424805 62.98036133 84.53771484 63.53369141 85.30371094 C64.60945811 86.79353289 65.68465992 88.28376291 66.75927734 89.77441406 C69.57872061 93.68379091 72.40962104 97.58416247 75.2578125 101.47265625 C76.14243164 102.68501953 76.14243164 102.68501953 77.04492188 103.921875 C78.17019883 105.46359303 79.29889759 107.00282166 80.43164062 108.5390625 C88.31176561 119.35804573 88.31176561 119.35804573 88.0078125 126.59765625 C87.19586223 131.1084911 84.38055624 133.89713904 81.09375 136.86328125 C76.53297411 140.02074148 72.0296113 140.18076154 66.65625 139.55078125 C57.36122659 135.18781108 51.1535831 124.71697484 45.08203125 116.73046875 C37.51782676 106.81539234 29.52675196 97.2231788 21.65625 87.55078125 C19.38495517 84.75948958 17.1141021 81.96783976 14.84375 79.17578125 C14.03151978 78.17744263 14.03151978 78.17744263 13.20288086 77.15893555 C9.51552405 72.62208784 5.86155495 68.06013098 2.2421875 63.46875 C0.7956511 61.71936731 -0.70786167 60.12222549 -2.34375 58.55078125 C-0.99439058 63.36059467 1.13683303 67.09798712 4.03125 71.11328125 C4.61132812 71.93989258 4.61132812 71.93989258 5.203125 72.78320312 C6.95641423 75.26310718 8.71884934 77.61965694 10.76300049 79.86875916 C13.00972734 83.05152562 13.18113773 84.72453069 13.23730469 88.58422852 C13.2628241 89.7806044 13.28834351 90.97698029 13.31463623 92.20960999 C13.31908752 93.49911057 13.32353882 94.78861115 13.328125 96.1171875 C13.34100956 97.47460975 13.35446831 98.83202667 13.36846924 100.18943787 C13.39241084 103.04170519 13.39983383 105.89348893 13.39746094 108.74584961 C13.39713877 111.63165183 13.42440898 114.51487504 13.47949219 117.40014648 C13.7899037 133.91261433 13.36332692 148.29033997 5.74072266 163.35031128 C3.95322341 166.97727079 2.50205695 170.73349602 1.0078125 174.48828125 C0.39997402 175.97307987 -0.20990893 177.45704308 -0.82177734 178.94018555 C-2.13920078 182.14135676 -3.45456836 185.34335859 -4.76806641 188.54614258 C-8.11682514 196.70959126 -11.47348788 204.86962606 -14.8500061 213.02163696 C-16.81101165 217.75855943 -18.76586615 222.49800555 -20.71875 227.23828125 C-21.10154114 228.1662854 -21.48433228 229.09428955 -21.87872314 230.05041504 C-27.05024461 242.61230071 -31.97355435 255.20888641 -36.17724609 268.1315918 C-39.1518671 277.00377768 -43.00421315 283.91770522 -51.34375 288.55078125 C-57.4605693 290.58972102 -62.72538026 290.16369645 -68.59375 287.48828125 C-74.20933331 284.42285397 -77.29709371 280.69075011 -79.34375 274.55078125 C-80.08439871 265.35474146 -78.67587388 257.46989529 -75.96875 248.72265625 C-75.61224365 247.51861649 -75.2557373 246.31457672 -74.88842773 245.0740509 C-74.12080515 242.48816672 -73.34737362 239.905001 -72.56298828 237.32424927 C-71.32348633 233.24387212 -70.11033641 229.15596267 -68.90234375 225.06616211 C-68.48856319 223.6661723 -68.07474462 222.26619372 -67.66088867 220.8662262 C-67.45450775 220.16803835 -67.24812683 219.4698505 -67.03549194 218.75050545 C-66.40341148 216.61541181 -65.7690896 214.48099674 -65.1340332 212.3467865 C-61.12178875 198.85849261 -57.21648667 185.34145539 -53.38867188 171.79968262 C-52.36689266 168.19492672 -51.33210722 164.59407517 -50.296875 160.99316406 C-45.0051973 142.40895619 -43.03611539 125.20903449 -42.71875 105.92578125 C-42.6804115 104.05206838 -42.64135176 102.17837012 -42.6015625 100.3046875 C-42.34800265 87.71942065 -42.30016121 75.13825518 -42.34375 62.55078125 C-45.33967164 66.76942423 -48.32428725 70.99457096 -51.2734375 75.24609375 C-52.93201083 77.61562809 -54.56583726 79.80378176 -56.4765625 81.98046875 C-62.75449127 89.2895549 -60.81829236 99.54573682 -60.34375 108.55078125 C-60.26107645 110.32939734 -60.17903997 112.10804317 -60.09765625 113.88671875 C-59.97230551 116.52467163 -59.84441996 119.16244536 -59.71191406 121.80004883 C-59.4181356 127.6949456 -59.14847057 133.58695825 -59.03125 139.48828125 C-59.00160156 140.21547363 -58.97195312 140.94266602 -58.94140625 141.69189453 C-58.88351336 146.8142088 -60.14455775 149.60433242 -63.34375 153.55078125 C-67.80561835 157.57734537 -71.13401528 158.92151264 -77.21875 158.83203125 C-82.09526847 158.18660969 -85.45453264 155.53360044 -88.71875 151.92578125 C-91.61790188 147.68855928 -91.71881359 143.96340545 -92.0625 138.94921875 C-92.12530151 138.07995758 -92.18810303 137.21069641 -92.25280762 136.31509399 C-92.45375398 133.51892354 -92.64873985 130.72237131 -92.84375 127.92578125 C-92.97488833 126.09502539 -93.10639477 124.26429586 -93.23828125 122.43359375 C-93.91910532 112.92063057 -94.55481436 103.40672803 -95.10449219 93.88525391 C-95.32926061 90.75271604 -95.7022894 87.66581998 -96.09375 84.55078125 C-95.99662241 76.5431508 -90.65211594 70.7857523 -85.98193359 64.70117188 C-83.78704393 61.8200112 -81.68685284 58.87528092 -79.58105469 55.92871094 C-76.85607881 52.12100692 -74.09711478 48.3379796 -71.34375 44.55078125 C-69.19562142 41.59410562 -67.05012925 38.63553922 -64.90625 35.67578125 C-64.37636475 34.94657471 -63.84647949 34.21736816 -63.30053711 33.46606445 C-60.37347047 29.42178335 -57.50571851 25.34509255 -54.6953125 21.21875 C-53.77770142 19.87949463 -53.77770142 19.87949463 -52.84155273 18.51318359 C-51.67283582 16.80242791 -50.51282274 15.0856783 -49.36352539 13.36181641 C-37.71393607 -3.65365492 -18.79257163 -11.62007346 0 0 Z " fill="#013768" transform="translate(298.34375,344.44921875)"/>
<path d="M0 0 C10.54884427 8.8941236 15.91845352 19.53025236 18.15234375 32.93359375 C8.58234375 32.93359375 -0.98765625 32.93359375 -10.84765625 32.93359375 C-11.83765625 30.29359375 -12.82765625 27.65359375 -13.84765625 24.93359375 C-18.0771144 17.99678333 -24.04085087 15.24628526 -31.47265625 12.68359375 C-42.70188559 10.25684478 -53.50294495 11.44774159 -63.31640625 17.44140625 C-72.52346896 24.03980119 -77.28269052 32.84611351 -79.40625 43.8203125 C-81.32727731 57.36950511 -79.16900121 70.59362901 -71.45703125 81.98828125 C-66.1769312 88.78064296 -58.89907648 92.24978701 -50.84765625 94.93359375 C-38.53358319 95.69696617 -27.48398694 95.7316084 -17.41015625 87.68359375 C-11.89761224 82.40826987 -10.09063543 77.39146881 -8.84765625 69.93359375 C-19.40765625 69.93359375 -29.96765625 69.93359375 -40.84765625 69.93359375 C-40.84765625 63.00359375 -40.84765625 56.07359375 -40.84765625 48.93359375 C-21.37765625 48.93359375 -1.90765625 48.93359375 18.15234375 48.93359375 C18.15234375 71.70359375 18.15234375 94.47359375 18.15234375 117.93359375 C10.89234375 117.93359375 3.63234375 117.93359375 -3.84765625 117.93359375 C-3.84765625 113.31359375 -3.84765625 108.69359375 -3.84765625 103.93359375 C-4.48703125 104.63484375 -5.12640625 105.33609375 -5.78515625 106.05859375 C-16.80549407 116.89474765 -31.29413466 120.21893797 -46.38745117 120.25048828 C-63.72663414 119.93233814 -78.62504628 111.99394007 -90.81640625 99.99609375 C-104.51833613 85.09224019 -108.77717967 66.17191228 -108.02246094 46.41845703 C-106.70420156 27.67928947 -96.97409173 13.2873601 -83.59765625 0.83984375 C-60.0691917 -18.88254565 -24.21614103 -17.57248094 0 0 Z " fill="#013567" transform="translate(458.84765625,671.06640625)"/>
<path d="M0 0 C10.89 0 21.78 0 33 0 C37.49405646 8.98811293 37.49405646 8.98811293 39.2421875 13.59375 C39.65726562 14.67793213 40.07234375 15.76211426 40.5 16.87915039 C40.95375 18.07403076 41.4075 19.26891113 41.875 20.5 C42.93195364 23.26024742 43.99310747 26.01887276 45.0546875 28.77734375 C45.34986267 29.54501572 45.64503784 30.31268768 45.94915771 31.10362244 C50.57421477 43.11271093 55.29373837 55.08507206 60 67.0625 C60.47864502 68.28174164 60.95729004 69.50098328 61.45043945 70.75717163 C68.21386427 87.98610111 68.21386427 87.98610111 75.0859375 105.171875 C75.378172 105.89680649 75.67040649 106.62173798 75.97149658 107.36863708 C77.25700716 110.55449503 78.54904949 113.73729243 79.8515625 116.91625977 C80.27953125 117.97127686 80.7075 119.02629395 81.1484375 120.11328125 C81.51114746 120.99798096 81.87385742 121.88268066 82.24755859 122.79418945 C83 125 83 125 83 128 C73.43 128 63.86 128 54 128 C50.7 119.09 47.4 110.18 44 101 C26.51 101 9.02 101 -9 101 C-12.3 109.91 -15.6 118.82 -19 128 C-28.9 128 -38.8 128 -49 128 C-45.62430101 117.87290304 -45.62430101 117.87290304 -44.21337891 114.1875 C-43.73533562 112.9348938 -43.73533562 112.9348938 -43.24763489 111.65698242 C-42.910681 110.78017822 -42.57372711 109.90337402 -42.2265625 109 C-41.68674995 107.58908081 -41.68674995 107.58908081 -41.1360321 106.1496582 C-39.96788554 103.09892465 -38.79662042 100.04940096 -37.625 97 C-37.22227875 95.94989746 -36.8195575 94.89979492 -36.40463257 93.81787109 C-31.18677577 80.21274666 -25.92006921 66.62853896 -20.55245972 53.08181763 C-13.5631916 35.44146079 -6.78872082 17.71827965 0 0 Z " fill="#023667" transform="translate(265,661)"/>
<path d="M0 0 C10.89 0 21.78 0 33 0 C34.11632812 2.8875 35.23265625 5.775 36.3828125 8.75 C45.4268113 32.12685921 54.52153308 55.48323185 63.6875 78.8125 C64.37504364 80.56324829 64.37504364 80.56324829 65.07647705 82.34936523 C66.40822539 85.7397484 67.74102881 89.12971473 69.07421875 92.51953125 C69.49282166 93.58503204 69.91142456 94.65053284 70.3427124 95.74832153 C72.34379742 100.8326367 74.36209272 105.90877338 76.42041016 110.97021484 C76.79672073 111.89831467 77.17303131 112.82641449 77.56074524 113.78263855 C78.26281784 115.51003942 78.96924155 117.23568082 79.68083191 118.95918274 C82 124.66801814 82 124.66801814 82 128 C72.76 128 63.52 128 54 128 C51.43478491 122.22826606 48.96155752 116.52624788 46.75 110.625 C46.3478125 109.57892578 46.3478125 109.57892578 45.9375 108.51171875 C44.81792577 105.53570767 44 103.20685417 44 100 C26.51 100.33 9.02 100.66 -9 101 C-12.3 109.91 -15.6 118.82 -19 128 C-28.9 128 -38.8 128 -49 128 C-45.62490117 117.87470351 -45.62490117 117.87470351 -44.16918945 114.13085938 C-43.84006058 113.28130676 -43.5109317 112.43175415 -43.17182922 111.55645752 C-42.82250839 110.66126404 -42.47318756 109.76607056 -42.11328125 108.84375 C-41.73918625 107.88007507 -41.36509125 106.91640015 -40.97966003 105.92352295 C-39.75932667 102.78154623 -38.53592752 99.64077305 -37.3125 96.5 C-36.45815936 94.30182542 -35.60399486 92.10358237 -34.75 89.90527344 C-30.70213238 79.48995118 -26.64272947 69.07914968 -22.57421875 58.671875 C-22.22945999 57.7899498 -21.88470123 56.9080246 -21.52949524 55.99937439 C-21.02122444 54.69922142 -21.02122444 54.69922142 -20.50268555 53.37280273 C-20.17005707 52.52193085 -19.83742859 51.67105896 -19.49472046 50.79440308 C-18.83369223 49.1035539 -18.1725803 47.41273744 -17.51138306 45.72195435 C-11.56852392 30.52016783 -5.75742114 15.27315885 0 0 Z " fill="#023667" transform="translate(736,661)"/>
<path d="M0 0 C8.58 0 17.16 0 26 0 C26.0093457 2.42641846 26.01869141 4.85283691 26.02832031 7.3527832 C26.06221031 15.40350195 26.11782557 23.4539676 26.18390274 31.50448322 C26.22327563 36.38166386 26.25551384 41.2586667 26.27099609 46.13598633 C26.28623009 50.85003545 26.32079414 55.56359543 26.36830902 60.27742577 C26.38305363 62.06854163 26.39103701 63.85972735 26.39188385 65.6509037 C26.403732 78.15458552 26.72596524 89.80332643 35.96875 99.33984375 C42.48986723 104.66960303 49.58759274 105.60529719 57.81640625 105.32421875 C65.55157265 104.53646561 73.05662088 102.40472152 78.40234375 96.43359375 C83.38413626 89.97892346 84.29630183 83.42956929 84.31884766 75.49438477 C84.32889328 74.67406265 84.3389389 73.85374054 84.34928894 73.00856018 C84.37997495 70.31951546 84.39711522 67.63056963 84.4140625 64.94140625 C84.4327859 63.06810158 84.45236018 61.19480524 84.4727478 59.32151794 C84.5239512 54.4077751 84.56363989 49.49400494 84.60089111 44.58013916 C84.64100487 39.55921743 84.69206351 34.53840814 84.7421875 29.51757812 C84.83880716 19.67845677 84.92224405 9.83928853 85 0 C93.91 0 102.82 0 112 0 C112.06800534 11.13613555 112.12294802 22.27213126 112.15543652 33.40842819 C112.17103598 38.58046995 112.19216887 43.75236123 112.22631836 48.92431641 C112.25911691 53.92343864 112.27689593 58.92241689 112.28463173 63.92163849 C112.29013866 65.82084669 112.30089151 67.72004778 112.31719017 69.61919403 C112.45788723 86.70613786 110.90864019 101.56293813 98.8125 114.8125 C88.95702951 123.81192739 75.34491344 129.4311227 62 130 C60.97519531 130.0515625 59.95039062 130.103125 58.89453125 130.15625 C42.71812045 130.58714219 27.70404456 126.68463085 15.0625 116.25 C5.74888364 107.28325948 0.49302211 95.89633978 -0.09025764 83.00520515 C-0.12209985 80.80370779 -0.1238103 78.60429237 -0.11352539 76.40258789 C-0.11367142 75.57251221 -0.11381744 74.74243652 -0.1139679 73.88720703 C-0.11327574 71.16566277 -0.1055162 68.44418844 -0.09765625 65.72265625 C-0.09578959 63.82694028 -0.09436686 61.93122383 -0.09336853 60.0355072 C-0.08956287 55.06251681 -0.07974935 50.08955593 -0.06866455 45.11657715 C-0.05840838 40.03540445 -0.05386192 34.95422695 -0.04882812 29.87304688 C-0.03812523 19.91534957 -0.02054434 9.95768187 0 0 Z " fill="#013667" transform="translate(501,661)"/>
<path d="M0 0 C3.13618239 1.56809119 3.43779075 4.16658205 4.6953125 7.3828125 C4.95961563 8.05207764 5.22391876 8.72134277 5.49623108 9.41088867 C6.0734205 10.87404064 6.64756709 12.33839564 7.21908569 13.80377197 C8.77550931 17.79180272 10.35653435 21.77009551 11.93359375 25.75 C12.42902428 27.00298386 12.42902428 27.00298386 12.9344635 28.28128052 C16.61889495 37.58972045 20.38988389 46.86224156 24.1875 56.125 C24.5238446 56.94594147 24.86018921 57.76688293 25.20672607 58.61270142 C30.20754756 70.80305082 35.3757696 82.90184081 40.765625 94.92578125 C42.30038263 98.38560126 43.81158456 101.85306083 45.265625 105.34765625 C45.58821289 106.11988525 45.91080078 106.89211426 46.24316406 107.68774414 C48.08346046 113.31014644 47.80987423 118.84797037 45.4375 124.25 C42.47119444 129.42793268 38.39311742 132.90315452 33 135.375 C26.16682437 136.79857826 21.76362094 135.792626 15.52734375 132.97265625 C7.07997617 126.37927043 3.76552634 114.93788328 -0.125 105.3125 C-0.77490222 103.71327962 -1.42505204 102.11415984 -2.07543945 100.51513672 C-3.06900566 98.07223492 -4.06170428 95.62902279 -5.04994202 93.18395996 C-6.91360978 88.59110664 -8.84250618 84.03749258 -10.86712646 79.51329041 C-12.05472554 76.85323351 -13.21088154 74.18011304 -14.36346436 71.50473022 C-15.16291746 69.68107589 -16.00397615 67.87583746 -16.84619141 66.0715332 C-20.41317302 57.67052707 -20.06157355 52.38165401 -16.75265503 43.92907715 C-15.9517438 41.87631793 -15.21262306 39.80780659 -14.48071289 37.72949219 C-13.13138805 33.9285026 -11.73123478 30.1489453 -10.30883789 26.37475586 C-9.43011685 24.04290745 -8.55916113 21.70827012 -7.68945312 19.37304688 C-7.12544123 17.8644183 -6.56100351 16.35594885 -5.99609375 14.84765625 C-5.73976669 14.16212173 -5.48343964 13.47658722 -5.21934509 12.77027893 C-3.59298113 8.459697 -1.84208197 4.22305085 0 0 Z " fill="#013668" transform="translate(312,498)"/>
<path d="M0 0 C5.06352627 3.8636907 8.03960612 9.09373895 10.921875 14.68359375 C11.26476562 15.34359375 11.60765625 16.00359375 11.9609375 16.68359375 C15.88202427 25.47855473 14.51489076 35.08523565 11.24609375 43.859375 C7.08798036 52.72756374 0.14629441 59.45576586 -8.765625 63.49609375 C-18.28671494 66.90931467 -28.1055912 66.86571863 -37.4765625 63.00390625 C-47.45196821 57.94131296 -53.69717715 50.29143571 -57.46289062 39.84936523 C-59.87932068 31.3429561 -59.29694141 21.02314333 -55.578125 13.05859375 C-50.36901761 4.23848921 -43.11797005 -2.55937974 -33.3125 -5.921875 C-21.28565683 -8.04549591 -10.36806527 -6.5677406 0 0 Z " fill="#013668" transform="translate(304.078125,263.31640625)"/>
<path d="M0 0 C8.58 0 17.16 0 26 0 C26 42.24 26 84.48 26 128 C17.42 128 8.84 128 0 128 C0 85.76 0 43.52 0 0 Z " fill="#003466" transform="translate(643,661)"/>
<path d="M0 0 C3.95628125 3.39609983 5.68365413 7.08931782 7.75 11.75 C8.45803141 13.2989113 9.1677034 14.84707359 9.87890625 16.39453125 C10.23484863 17.1726416 10.59079102 17.95075195 10.95751953 18.75244141 C12.47016536 22.0136633 14.0685684 25.2280094 15.6875 28.4375 C16.0064624 29.07196045 16.3254248 29.7064209 16.65405273 30.36010742 C17.36085938 31.76480361 18.06833755 33.16916204 18.77636719 34.57324219 C25.70297598 48.31037137 32.59946416 62.05543883 39.19140625 75.95678711 C45.41322353 89.03604287 51.82601742 102.02340872 58.20874023 115.0246582 C60.43185496 119.55576956 62.64541741 124.09140411 64.84918213 128.63195801 C65.57845335 130.13258196 66.31020635 131.63200446 67.04534912 133.12976074 C67.92912209 134.93341358 68.79916854 136.74377491 69.66796875 138.5546875 C70.12840576 139.50585449 70.58884277 140.45702148 71.06323242 141.43701172 C72.06252464 144.17106689 72.26895536 146.1136045 72 149 C70.9375 150.875 70.9375 150.875 69 152 C65.6237793 152.00952148 65.6237793 152.00952148 62 151 C60.26809688 148.56119764 59.21893548 146.6732541 58.08203125 143.97265625 C57.40663957 142.50106163 56.73034256 141.02988224 56.05322266 139.55908203 C55.54568451 138.42203827 55.54568451 138.42203827 55.02789307 137.26202393 C53.41998701 133.72359946 51.65036648 130.2712431 49.88671875 126.80859375 C49.18720568 125.41649025 48.48864464 124.02390799 47.79101562 122.63085938 C46.74632281 120.54752642 45.70107742 118.46448492 44.65356445 116.38256836 C39.76955281 106.67333304 35.024215 96.90474647 30.34979248 87.09292603 C25.32113787 76.54973611 20.18554441 66.05968224 15.03833008 55.57397461 C13.43361289 52.30458054 11.83094414 49.0341882 10.22851562 45.76367188 C3.87851874 32.81236281 -2.5265359 19.89004046 -9 7 C-6.03291147 4.61845631 -3.05742925 2.26476241 0 0 Z " fill="#033264" transform="translate(384,482)"/>
<path d="M0 0 C0.66 0 1.32 0 2 0 C4.28751827 6.33227901 6.56515586 12.66804772 8.8359375 19.00634766 C9.60970277 21.16243939 10.38573188 23.31772008 11.1640625 25.47216797 C12.28199956 28.56788399 13.39178044 31.66641912 14.5 34.765625 C14.84998047 35.72929993 15.19996094 36.69297485 15.56054688 37.68585205 C15.88087891 38.58648376 16.20121094 39.48711548 16.53125 40.41503906 C16.81548828 41.20557678 17.09972656 41.9961145 17.39257812 42.81060791 C18 45 18 45 18 49 C6.78 49 -4.44 49 -16 49 C-17.42739236 44.71782293 -15.68347886 41.71513484 -14.140625 37.67578125 C-13.68305817 36.44543404 -13.68305817 36.44543404 -13.21624756 35.19023132 C-12.23613764 32.56099582 -11.24327253 29.93678757 -10.25 27.3125 C-9.5955086 25.56346722 -8.94185297 23.81412145 -8.2890625 22.06445312 C-6.80661793 18.0965472 -5.31514461 14.13214786 -3.81848145 10.16958618 C-2.54039116 6.78169384 -1.27032067 3.39081236 0 0 Z " fill="#F5F6F6" transform="translate(752,689)"/>
<path d="M0 0 C0.66 0 1.32 0 2 0 C4.45233879 6.49135001 6.89025867 12.98797933 9.31811523 19.48852539 C10.14616251 21.70038797 10.97753218 23.91100967 11.81225586 26.12036133 C13.00985383 29.29189677 14.19552572 32.46766811 15.37890625 35.64453125 C15.75592178 36.63524124 16.13293732 37.62595123 16.52137756 38.64668274 C16.86180588 39.56741074 17.20223419 40.48813873 17.55297852 41.43676758 C17.8572023 42.2472908 18.16142609 43.05781403 18.47486877 43.89289856 C19 46 19 46 18 49 C6.78 49 -4.44 49 -16 49 C-14.87503699 41.12525892 -14.87503699 41.12525892 -13.72485352 37.99584961 C-13.47111465 37.29499741 -13.21737579 36.5941452 -12.95594788 35.87205505 C-12.68302414 35.13955032 -12.4101004 34.40704559 -12.12890625 33.65234375 C-11.84651596 32.87742081 -11.56412567 32.10249786 -11.2731781 31.30409241 C-10.37600853 28.84616631 -9.4695577 26.39179205 -8.5625 23.9375 C-7.66111986 21.47890548 -6.76164591 19.01962056 -5.86253357 16.56019592 C-5.30446108 15.03581335 -4.74470882 13.51204432 -4.18299866 11.98899841 C-2.71925289 8.01355592 -1.31568034 4.02771395 0 0 Z " fill="#F5F6F6" transform="translate(281,689)"/>
<path d="M0 0 C6.11569647 -0.07509829 12.23111469 -0.12904247 18.34716797 -0.16479492 C20.42045782 -0.17972569 22.49371698 -0.20007769 24.56689453 -0.22631836 C53.82613502 -0.58693249 53.82613502 -0.58693249 63 4 C63.31571333 9.26188885 62.89914347 12.55464669 60 17 C56.22900654 20.73076953 53.47864185 23 48.0625 23 C40.88204365 22.11252787 35.47270739 17.51075534 29.7578125 13.37890625 C20.80536764 7.06628487 10.47570363 3.90860394 0 1 C0 0.67 0 0.34 0 0 Z " fill="#F9FAF9" transform="translate(519,275)"/>
<path d="M0 0 C0.33 0 0.66 0 1 0 C1.01030746 0.90009796 1.02061493 1.80019592 1.03123474 2.72756958 C1.16309705 14.19342265 1.29872552 25.65922849 1.4375 37.125 C1.44852123 38.03580322 1.45954247 38.94660645 1.47089767 39.88500977 C1.81962953 68.59446976 2.27315225 97.2972462 3 126 C10.59 126.33 18.18 126.66 26 127 C26 127.33 26 127.66 26 128 C17.42 128 8.84 128 0 128 C0 85.76 0 43.52 0 0 Z " fill="#104071" transform="translate(643,661)"/>
<path d="M0 0 C0.33 0 0.66 0 1 0 C1 22.44 1 44.88 1 68 C-6.26 68 -13.52 68 -21 68 C-21 63.38 -21 58.76 -21 54 C-20.01 53.505 -20.01 53.505 -19 53 C-19 57.29 -19 61.58 -19 66 C-12.73 66 -6.46 66 0 66 C0 44.22 0 22.44 0 0 Z " fill="#1B2B5B" transform="translate(476,721)"/>
<path d="M0 0 C5.93409367 4.69782416 10.42451008 9.98649896 15 16 C14.67 16.66 14.34 17.32 14 18 C13.34 18 12.68 18 12 18 C11.67 18.66 11.34 19.32 11 20 C9.53840903 17.91888693 8.08066008 15.83525539 6.625 13.75 C6.2125 13.16347656 5.8 12.57695312 5.375 11.97265625 C0 4.25693044 0 4.25693044 0 0 Z " fill="#F1F5F7" transform="translate(295,402)"/>
<path d="M0 0 C0.33 0 0.66 0 1 0 C1.33 15.18 1.66 30.36 2 46 C9.59 46.33 17.18 46.66 25 47 C25 47.33 25 47.66 25 48 C16.42 48 7.84 48 -1 48 C-0.67 32.16 -0.34 16.32 0 0 Z " fill="#203A68" transform="translate(644,741)"/>
<path d="M0 0 C0.33 0.66 0.66 1.32 1 2 C0.06553465 4.03144641 -0.93224776 6.03533587 -2 8 C-1.34 8.33 -0.68 8.66 0 9 C-1 11 -1 11 -4 13 C-4.99 13 -5.98 13 -7 13 C-6.49325789 8.56600657 -4.89488631 6.33350545 -2 3 C-1.34 2.01 -0.68 1.02 0 0 Z " fill="#E6EBF0" transform="translate(386,472)"/>
<path d="M0 0 C0.66 0 1.32 0 2 0 C2.66 2.31 3.32 4.62 4 7 C3.401875 7.103125 2.80375 7.20625 2.1875 7.3125 C-0.40434372 7.94177772 -0.40434372 7.94177772 -3 11 C-2.01 7.37 -1.02 3.74 0 0 Z " fill="#E4EBF0" transform="translate(281,689)"/>
<path d="M0 0 C0.66 0.33 1.32 0.66 2 1 C2.625 4.0625 2.625 4.0625 3 7 C2.34 6.34 1.68 5.68 1 5 C0.01 6.98 -0.98 8.96 -2 11 C-2.95465783 8.83032311 -3.14401212 7.43671207 -2.3984375 5.17578125 C-1.64129615 3.4315257 -0.82390802 1.71372869 0 0 Z " fill="#0D2255" transform="translate(312,498)"/>
<path d="M0 0 C2.64 0.99 5.28 1.98 8 3 C7.01 3.33 6.02 3.66 5 4 C3.79117904 6.00016466 3.79117904 6.00016466 3 8 C0 2.25 0 2.25 0 0 Z " fill="#44ACEA" transform="translate(419,241)"/>
<path d="M0 0 C0.66 0.33 1.32 0.66 2 1 C4.204364 1.22950319 6.41392173 1.41075933 8.625 1.5625 C9.81351563 1.64628906 11.00203125 1.73007812 12.2265625 1.81640625 C13.59941406 1.90728516 13.59941406 1.90728516 15 2 C15 2.33 15 2.66 15 3 C7.08 3.495 7.08 3.495 -1 4 C-0.67 2.68 -0.34 1.36 0 0 Z " fill="#EDF0F1" transform="translate(736,733)"/>
<path d="M0 0 C1.60372657 4.00931642 0.38691773 7.05823382 -1 11 C-1.66 11.66 -2.32 12.32 -3 13 C-2.52060632 8.28596212 -2.03165952 4.33420699 0 0 Z " fill="#0B2255" transform="translate(235,553)"/>
<path d="M0 0 C0.33 0 0.66 0 1 0 C1.3763524 3.9517002 1.09508438 5.82294633 -0.8125 9.375 C-1.534375 10.24125 -2.25625 11.1075 -3 12 C-3.99 12 -4.98 12 -6 12 C-5.53980469 11.60167969 -5.07960938 11.20335937 -4.60546875 10.79296875 C-2.7325678 8.70133484 -2.12610698 6.98578008 -1.3125 4.3125 C-1.06113281 3.50425781 -0.80976563 2.69601562 -0.55078125 1.86328125 C-0.36902344 1.24839844 -0.18726563 0.63351562 0 0 Z " fill="#041A4D" transform="translate(385,467)"/>
<path d="M0 0 C0.66 0.33 1.32 0.66 2 1 C0.35 2.98 -1.3 4.96 -3 7 C-3.33 6.34 -3.66 5.68 -4 5 C-4.99 5.33 -5.98 5.66 -7 6 C-7 5.34 -7 4.68 -7 4 C-1.7265625 0.77734375 -1.7265625 0.77734375 0 0 Z " fill="#E8F4F9" transform="translate(443,348)"/>
<path d="M0 0 C0.33 0.66 0.66 1.32 1 2 C-0.3125 4.625 -0.3125 4.625 -2 7 C-2.66 7 -3.32 7 -4 7 C-4 7.66 -4 8.32 -4 9 C-4.66 8.67 -5.32 8.34 -6 8 C-4.02 5.36 -2.04 2.72 0 0 Z " fill="#082155" transform="translate(246,363)"/>
<path d="M0 0 C0.5534764 2.07553648 1 3.84365964 1 6 C0.34 6 -0.32 6 -1 6 C-1.66 7.32 -2.32 8.64 -3 10 C-2.69201674 8.51988629 -2.378482 7.04092675 -2.0625 5.5625 C-1.88847656 4.73878906 -1.71445313 3.91507813 -1.53515625 3.06640625 C-1 1 -1 1 0 0 Z " fill="#0D2355" transform="translate(250,701)"/>
<path d="M0 0 C2.83374881 3.20336822 3.5205537 5.78087253 4 10 C2 8.375 2 8.375 0 6 C-0.25 2.75 -0.25 2.75 0 0 Z " fill="#051C4E" transform="translate(780,693)"/>
</svg>
